<?xml version="1.0" standalone="no"?>
<!DOCTYPE svg PUBLIC "-//W3C//DTD SVG 20010904//EN"
 "http://www.w3.org/TR/2001/REC-SVG-20010904/DTD/svg10.dtd">
<svg version="1.0" xmlns="http://www.w3.org/2000/svg"
 width="365.000000pt" height="337.000000pt" viewBox="0 0 365.000000 337.000000"
 preserveAspectRatio="xMidYMid meet">

<g transform="translate(0.000000,337.000000) scale(0.100000,-0.100000)"
fill="#000000" stroke="none">
<path d="M2050 2967 c-3 -3 -30 -8 -60 -11 -72 -6 -233 -41 -290 -63 -60 -22
-181 -87 -255 -136 -329 -221 -601 -678 -691 -1162 -25 -134 -31 -586 -8 -562
3 2 23 74 45 158 63 244 108 393 140 470 16 40 31 83 34 97 7 38 203 427 244
484 163 226 181 246 317 362 148 127 373 234 565 270 46 8 102 19 124 23 48 9
276 9 323 0 17 -4 32 -2 32 2 0 8 -58 25 -130 37 -14 2 -41 7 -60 10 -67 12
-86 14 -205 20 -66 4 -122 4 -125 1z"/>
<path d="M2622 2686 c-9 -29 -44 -121 -124 -321 -27 -69 -113 -237 -161 -315
-22 -36 -48 -79 -58 -97 -38 -67 -199 -262 -294 -357 -259 -257 -514 -400
-920 -516 -153 -44 -198 -68 -323 -176 -98 -84 -210 -209 -198 -221 2 -3 29
14 59 36 48 35 95 60 172 92 88 37 291 68 437 69 42 0 108 7 147 15 98 20 308
90 367 121 233 123 260 142 417 288 217 202 325 386 423 723 43 147 84 460 84
640 0 60 -14 70 -28 19z"/>
</g>
</svg>
