<?xml version="1.0" encoding="UTF-8"?>
<!DOCTYPE svg PUBLIC "-//W3C//DTD SVG 1.1//EN" "http://www.w3.org/Graphics/SVG/1.1/DTD/svg11.dtd">
<svg xmlns="http://www.w3.org/2000/svg" version="1.1" width="365px" height="337px" style="shape-rendering:geometricPrecision; text-rendering:geometricPrecision; image-rendering:optimizeQuality; fill-rule:evenodd; clip-rule:evenodd" xmlns:xlink="http://www.w3.org/1999/xlink">
<g><path style="opacity:0.655" fill="#fcfbc8" d="M 254.5,-0.5 C 263.167,-0.5 271.833,-0.5 280.5,-0.5C 280.842,0.338246 281.508,0.67158 282.5,0.5C 282.5,0.833333 282.5,1.16667 282.5,1.5C 268.167,1.5 253.833,1.5 239.5,1.5C 244.5,0.833333 249.5,0.166667 254.5,-0.5 Z"/></g>
<g><path style="opacity:1" fill="#fcf9a4" d="M 239.5,1.5 C 253.833,1.5 268.167,1.5 282.5,1.5C 287.032,1.18178 291.366,1.51511 295.5,2.5C 270.771,2.06448 246.105,2.73115 221.5,4.5C 227.423,3.02945 233.423,2.02945 239.5,1.5 Z"/></g>
<g><path style="opacity:0.403" fill="#fcface" d="M 282.5,1.5 C 282.5,1.16667 282.5,0.833333 282.5,0.5C 301.179,1.00053 319.846,1.83387 338.5,3C 340.611,3.84468 342.611,4.67802 344.5,5.5C 342.5,5.5 340.5,5.5 338.5,5.5C 332.359,4.36388 326.026,3.69722 319.5,3.5C 311.445,3.77011 303.445,3.43678 295.5,2.5C 291.366,1.51511 287.032,1.18178 282.5,1.5 Z"/></g>
<g><path style="opacity:1" fill="#fbf88a" d="M 295.5,2.5 C 303.445,3.43678 311.445,3.77011 319.5,3.5C 320.609,4.28997 321.942,4.78997 323.5,5C 328.489,5.49926 333.489,5.66593 338.5,5.5C 341.507,7.17453 344.84,7.8412 348.5,7.5C 352.835,7.91674 357.168,8.41674 361.5,9C 362.022,9.5613 362.355,10.228 362.5,11C 356.601,17.3006 352.101,24.4672 349,32.5C 344.668,39.4894 340.335,46.4894 336,53.5C 334.714,56.4055 333.714,59.4055 333,62.5C 324.997,75.8327 318.664,89.8327 314,104.5C 312.187,108.79 309.854,112.79 307,116.5C 306.506,118.134 306.34,119.801 306.5,121.5C 305.542,121.953 304.708,122.619 304,123.5C 300.494,130.177 297.66,137.177 295.5,144.5C 294.21,145.058 293.377,146.058 293,147.5C 291.57,150.353 290.737,153.353 290.5,156.5C 289.504,156.414 288.671,156.748 288,157.5C 286.953,160.859 285.453,163.859 283.5,166.5C 281.98,169.58 280.313,172.58 278.5,175.5C 276.664,178.183 275.664,181.183 275.5,184.5C 268.678,189.523 263.844,196.19 261,204.5C 255.379,212.293 249.546,219.959 243.5,227.5C 236.47,234.528 229.804,241.862 223.5,249.5C 213.115,257.214 202.448,264.548 191.5,271.5C 189.467,273.507 187.467,275.507 185.5,277.5C 183.62,277.229 182.287,277.896 181.5,279.5C 178.784,279.386 176.784,280.386 175.5,282.5C 174.791,283.404 173.791,283.737 172.5,283.5C 169.854,283.892 167.354,283.892 165,283.5C 164.167,285 163,286.167 161.5,287C 154.342,289.501 147.008,291.501 139.5,293C 138.663,294.011 138.33,295.178 138.5,296.5C 138.167,296.5 137.833,296.5 137.5,296.5C 133.44,296.485 129.44,296.985 125.5,298C 123.68,298.2 122.347,299.034 121.5,300.5C 121.167,300.5 120.833,300.5 120.5,300.5C 115.823,300.835 111.156,301.335 106.5,302C 105.584,302.278 104.918,302.778 104.5,303.5C 103.833,303.5 103.167,303.5 102.5,303.5C 96.8333,303.5 91.1667,303.5 85.5,303.5C 74.8337,303.933 64.167,304.433 53.5,305C 52.6634,306.011 52.33,307.178 52.5,308.5C 51.1266,308.343 49.7932,308.51 48.5,309C 45.0987,310.835 41.7654,312.668 38.5,314.5C 35.5373,316.786 32.204,318.619 28.5,320C 27.7476,320.671 27.4142,321.504 27.5,322.5C 25.6203,322.229 24.287,322.896 23.5,324.5C 21.3146,324.704 19.3146,325.37 17.5,326.5C 13.773,326.495 10.773,327.829 8.5,330.5C 7.41683,330.539 6.41683,330.873 5.5,331.5C 5.16667,330 4.83333,328.5 4.5,327C 5.08975,322.811 5.75642,318.644 6.5,314.5C 7.32474,310.353 7.82474,306.019 8,301.5C 10.513,295.116 11.6796,288.45 11.5,281.5C 12.9512,275.749 14.2845,270.083 15.5,264.5C 16.3996,259.668 17.0662,254.668 17.5,249.5C 17.1984,246.941 17.5318,244.607 18.5,242.5C 20.1384,238.436 21.1384,234.103 21.5,229.5C 22.6913,222.373 24.1913,215.373 26,208.5C 26.6708,207.748 27.5041,207.414 28.5,207.5C 29.3359,202.844 30.3359,198.178 31.5,193.5C 32.1082,189.528 32.6082,185.528 33,181.5C 33.6667,180.833 34.3333,180.167 35,179.5C 35.7797,173.969 37.113,168.635 39,163.5C 40,162.5 41,161.5 42,160.5C 45.3177,146.035 50.4844,132.369 57.5,119.5C 60.6427,116.996 62.3094,113.663 62.5,109.5C 66.7886,102.195 71.122,94.8615 75.5,87.5C 76.7206,86.9717 77.8873,86.305 79,85.5C 80.2446,82.6761 81.7446,80.0094 83.5,77.5C 87.0466,71.2802 91.7132,65.9469 97.5,61.5C 100.212,60.9532 101.712,59.2865 102,56.5C 105.965,55.0348 108.799,52.3681 110.5,48.5C 110.414,47.5041 110.748,46.6708 111.5,46C 112.833,45.6667 114.167,45.3333 115.5,45C 118.719,41.9114 122.052,39.078 125.5,36.5C 128.914,35.2715 132.247,33.7715 135.5,32C 136.381,31.2917 137.047,30.4584 137.5,29.5C 147.968,25.1664 158.302,20.333 168.5,15C 185.833,10.0861 203.5,6.5861 221.5,4.5C 246.105,2.73115 270.771,2.06448 295.5,2.5 Z"/></g>
<g><path style="opacity:1" fill="#fefbb7" d="M 319.5,3.5 C 326.026,3.69722 332.359,4.36388 338.5,5.5C 333.489,5.66593 328.489,5.49926 323.5,5C 321.942,4.78997 320.609,4.28997 319.5,3.5 Z"/></g>
<g><path style="opacity:1" fill="#fefbb6" d="M 338.5,5.5 C 340.5,5.5 342.5,5.5 344.5,5.5C 344.833,5.5 345.167,5.5 345.5,5.5C 346.5,6.16667 347.5,6.83333 348.5,7.5C 344.84,7.8412 341.507,7.17453 338.5,5.5 Z"/></g>
<g><path style="opacity:0.928" fill="#fcfac8" d="M 239.5,1.5 C 233.423,2.02945 227.423,3.02945 221.5,4.5C 203.5,6.5861 185.833,10.0861 168.5,15C 158.302,20.333 147.968,25.1664 137.5,29.5C 135.167,30.1667 132.833,30.8333 130.5,31.5C 154.229,16.3099 180.229,7.14325 208.5,4C 218.764,2.25856 229.097,1.42522 239.5,1.5 Z"/></g>
<g><path style="opacity:0.826" fill="#fdfbc0" d="M 345.5,5.5 C 351.886,5.83854 358.22,6.50521 364.5,7.5C 364.5,8.83333 364.5,10.1667 364.5,11.5C 361.76,15.9775 359.26,20.6442 357,25.5C 352.6,29.9672 348.934,34.9672 346,40.5C 332.786,67.5914 319.62,94.5914 306.5,121.5C 306.34,119.801 306.506,118.134 307,116.5C 309.854,112.79 312.187,108.79 314,104.5C 318.664,89.8327 324.997,75.8327 333,62.5C 333.714,59.4055 334.714,56.4055 336,53.5C 340.335,46.4894 344.668,39.4894 349,32.5C 352.101,24.4672 356.601,17.3006 362.5,11C 362.355,10.228 362.022,9.5613 361.5,9C 357.168,8.41674 352.835,7.91674 348.5,7.5C 347.5,6.83333 346.5,6.16667 345.5,5.5 Z"/></g>
<g><path style="opacity:1" fill="#d5e18c" d="M 239.5,24.5 C 258.17,24.3334 276.836,24.5001 295.5,25C 296.167,25.6667 296.833,26.3333 297.5,27C 304.579,27.1145 311.579,27.7811 318.5,29C 320.028,31.518 319.694,33.6847 317.5,35.5C 304.484,79.7592 285.984,121.426 262,160.5C 256.184,169.598 250.184,178.598 244,187.5C 237.716,193.397 232.383,200.064 228,207.5C 219.648,214.351 212.148,222.018 205.5,230.5C 199.839,234.492 194.173,238.492 188.5,242.5C 187.05,243.85 186.383,245.516 186.5,247.5C 183.11,248.023 179.777,248.857 176.5,250C 168.754,254.61 161.088,259.11 153.5,263.5C 143.757,267.309 133.757,270.476 123.5,273C 114.511,274.094 105.511,275.094 96.5,276C 82.1588,276.309 67.8254,276.309 53.5,276C 49.3764,278.207 45.0431,279.707 40.5,280.5C 44.8725,244.088 51.8725,208.254 61.5,173C 63.2731,168.62 65.4398,164.453 68,160.5C 69.7349,151.689 72.0682,143.023 75,134.5C 78.3761,130.017 80.7094,125.017 82,119.5C 85.4118,113.008 89.0785,106.675 93,100.5C 94.0113,99.6634 95.1779,99.33 96.5,99.5C 96.3433,98.1266 96.51,96.7932 97,95.5C 99.5164,92.4656 101.516,89.1323 103,85.5C 108.61,80.1456 113.61,74.479 118,68.5C 122.817,65.3432 127.317,61.8432 131.5,58C 135.327,57.502 137.993,55.502 139.5,52C 143.548,51.8351 146.215,50.0018 147.5,46.5C 149.854,46.162 152.187,45.662 154.5,45C 162.6,40.9255 170.933,37.2589 179.5,34C 199.558,30.3306 219.558,27.1639 239.5,24.5 Z"/></g>
<g><path style="opacity:1" fill="#fdfbb3" d="M 137.5,29.5 C 137.047,30.4584 136.381,31.2917 135.5,32C 132.247,33.7715 128.914,35.2715 125.5,36.5C 126.973,34.6053 128.64,32.9387 130.5,31.5C 132.833,30.8333 135.167,30.1667 137.5,29.5 Z"/></g>
<g><path style="opacity:1" fill="#65a265" d="M 200.5,40.5 C 194.26,41.3177 187.927,42.3177 181.5,43.5C 183.277,42.3995 185.277,41.5662 187.5,41C 191.821,40.501 196.154,40.3343 200.5,40.5 Z"/></g>
<g><path style="opacity:1" fill="#67a361" d="M 234.5,40.5 C 237.495,40.2938 240.162,40.9605 242.5,42.5C 239.447,42.8893 236.78,42.2227 234.5,40.5 Z"/></g>
<g><path style="opacity:1" fill="#5e9e62" d="M 242.5,42.5 C 246.458,42.2511 250.124,42.9177 253.5,44.5C 249.575,44.5701 245.909,43.9034 242.5,42.5 Z"/></g>
<g><path style="opacity:1" fill="#127344" d="M 234.5,40.5 C 236.78,42.2227 239.447,42.8893 242.5,42.5C 245.909,43.9034 249.575,44.5701 253.5,44.5C 253.918,45.2216 254.584,45.7216 255.5,46C 248.67,46.2588 241.837,46.0921 235,45.5C 229.266,45.4149 223.766,46.0816 218.5,47.5C 217.5,47.5 216.5,47.5 215.5,47.5C 209.777,47.7774 204.443,49.1107 199.5,51.5C 195.642,51.7701 192.309,53.1034 189.5,55.5C 186.99,55.9267 184.657,56.5933 182.5,57.5C 176.772,58.863 171.772,61.5296 167.5,65.5C 164.06,67.0549 160.727,68.8882 157.5,71C 151.833,76 146.167,81 140.5,86C 121.515,107.441 106.682,131.608 96,158.5C 93.6632,164.678 91.8298,171.012 90.5,177.5C 89.8826,177.611 89.3826,177.944 89,178.5C 86.851,185.098 85.0177,191.764 83.5,198.5C 82.6102,205.724 80.9435,212.724 78.5,219.5C 76.9261,221.102 76.2594,223.102 76.5,225.5C 76.4828,227.565 76.1495,229.565 75.5,231.5C 74.7784,231.918 74.2784,232.584 74,233.5C 73.7679,232.263 73.2679,231.263 72.5,230.5C 71.2614,218.015 71.2614,205.682 72.5,193.5C 74.0989,186.38 75.0989,179.046 75.5,171.5C 84.0002,128.332 105,92.4985 138.5,64C 151.31,53.9279 165.643,47.0945 181.5,43.5C 187.927,42.3177 194.26,41.3177 200.5,40.5C 211.777,39.2859 223.11,39.2859 234.5,40.5 Z"/></g>
<g><path style="opacity:1" fill="#6ea667" d="M 253.5,44.5 C 256.829,44.2637 259.829,45.097 262.5,47C 247.837,47.4999 233.17,47.6666 218.5,47.5C 223.766,46.0816 229.266,45.4149 235,45.5C 241.837,46.0921 248.67,46.2588 255.5,46C 254.584,45.7216 253.918,45.2216 253.5,44.5 Z"/></g>
<g><path style="opacity:0.855" fill="#fdfbc6" d="M 130.5,31.5 C 128.64,32.9387 126.973,34.6053 125.5,36.5C 122.052,39.078 118.719,41.9114 115.5,45C 114.167,45.3333 112.833,45.6667 111.5,46C 110.748,46.6708 110.414,47.5041 110.5,48.5C 108.203,49.8347 106.203,51.6681 104.5,54C 103.552,54.4828 102.552,54.6495 101.5,54.5C 109.679,44.9914 119.345,37.3247 130.5,31.5 Z"/></g>
<g><path style="opacity:1" fill="#53985c" d="M 215.5,47.5 C 210.391,49.2498 205.058,50.5832 199.5,51.5C 204.443,49.1107 209.777,47.7774 215.5,47.5 Z"/></g>
<g><path style="opacity:1" fill="#85b575" d="M 199.5,51.5 C 196.482,53.3999 193.149,54.7333 189.5,55.5C 192.309,53.1034 195.642,51.7701 199.5,51.5 Z"/></g>
<g><path style="opacity:1" fill="#fdfbb2" d="M 110.5,48.5 C 108.799,52.3681 105.965,55.0348 102,56.5C 101.712,59.2865 100.212,60.9532 97.5,61.5C 97.9613,58.6967 99.2947,56.3634 101.5,54.5C 102.552,54.6495 103.552,54.4828 104.5,54C 106.203,51.6681 108.203,49.8347 110.5,48.5 Z"/></g>
<g><path style="opacity:1" fill="#5e9e61" d="M 182.5,57.5 C 177.667,60.4176 172.667,63.0843 167.5,65.5C 171.772,61.5296 176.772,58.863 182.5,57.5 Z"/></g>
<g><path style="opacity:1" fill="#62a061" d="M 167.5,65.5 C 141.027,85.4855 120.527,110.485 106,140.5C 100.805,152.882 95.638,165.216 90.5,177.5C 91.8298,171.012 93.6632,164.678 96,158.5C 106.682,131.608 121.515,107.441 140.5,86C 146.167,81 151.833,76 157.5,71C 160.727,68.8882 164.06,67.0549 167.5,65.5 Z"/></g>
<g><path style="opacity:1" fill="#fdf9a8" d="M 83.5,77.5 C 81.7446,80.0094 80.2446,82.6761 79,85.5C 77.8873,86.305 76.7206,86.9717 75.5,87.5C 77.5968,84.7838 79.4302,81.7838 81,78.5C 81.6708,77.7476 82.5041,77.4142 83.5,77.5 Z"/></g>
<g><path style="opacity:1" fill="#107343" d="M 260.5,116.5 C 259.599,120.736 258.599,125.07 257.5,129.5C 250.605,159.964 235.938,185.964 213.5,207.5C 210.236,209.094 207.569,211.427 205.5,214.5C 192.919,224.293 179.252,232.293 164.5,238.5C 158.608,240.129 152.941,242.129 147.5,244.5C 142.531,245.663 137.531,246.83 132.5,248C 110.12,246.712 88.7867,250.378 68.5,259C 63.2967,261.77 58.63,265.27 54.5,269.5C 53.4173,268.635 53.2506,267.635 54,266.5C 63.2066,254.293 74.0399,243.793 86.5,235C 97.8518,230.551 109.519,226.884 121.5,224C 165.045,208.453 199.878,181.62 226,143.5C 233.188,131.79 239.855,119.79 246,107.5C 251.292,92.9195 257.126,78.5862 263.5,64.5C 264.682,81.9582 263.682,99.2915 260.5,116.5 Z"/></g>
<g><path style="opacity:1" fill="#bed75d" d="M 223.5,87.5 C 223.611,86.8826 223.944,86.3826 224.5,86C 222.527,85.5045 220.527,85.3379 218.5,85.5C 223.754,82.7277 229.42,81.8943 235.5,83C 231.523,84.6043 227.523,86.1043 223.5,87.5 Z"/></g>
<g><path style="opacity:1" fill="#c6dc6c" d="M 208.5,87.5 C 205.912,89.5918 202.912,90.9251 199.5,91.5C 201.64,88.3875 204.64,87.0541 208.5,87.5 Z"/></g>
<g><path style="opacity:0.616" fill="#fdfbc1" d="M 101.5,54.5 C 99.2947,56.3634 97.9613,58.6967 97.5,61.5C 91.7132,65.9469 87.0466,71.2802 83.5,77.5C 82.5041,77.4142 81.6708,77.7476 81,78.5C 79.4302,81.7838 77.5968,84.7838 75.5,87.5C 71.122,94.8615 66.7886,102.195 62.5,109.5C 61.8333,109.833 61.1667,110.167 60.5,110.5C 68.8301,92.5066 79.6634,76.1733 93,61.5C 95.4356,58.5532 98.2689,56.2199 101.5,54.5 Z"/></g>
<g><path style="opacity:1" fill="#b3d24a" d="M 218.5,85.5 C 220.527,85.3379 222.527,85.5045 224.5,86C 223.944,86.3826 223.611,86.8826 223.5,87.5C 214.634,91.7654 205.634,95.7654 196.5,99.5C 196.421,98.0695 196.754,96.7362 197.5,95.5C 196.833,95.1667 196.167,94.8333 195.5,94.5C 191.394,95.0929 187.727,96.4262 184.5,98.5C 188.768,94.843 193.768,92.5097 199.5,91.5C 202.912,90.9251 205.912,89.5918 208.5,87.5C 211.865,86.9604 215.198,86.2937 218.5,85.5 Z"/></g>
<g><path style="opacity:1" fill="#c8dd6e" d="M 182.5,98.5 C 173.842,104.164 165.175,109.83 156.5,115.5C 163.836,107.873 172.503,102.206 182.5,98.5 Z"/></g>
<g><path style="opacity:1" fill="#accf3c" d="M 196.5,99.5 C 196.167,99.5 195.833,99.5 195.5,99.5C 194.127,99.3433 192.793,99.51 191.5,100C 186.087,104.687 180.42,108.854 174.5,112.5C 161.61,121.222 149.776,131.222 139,142.5C 131.648,150.583 124.315,158.583 117,166.5C 114.611,170.051 112.445,173.717 110.5,177.5C 110.5,177.833 110.5,178.167 110.5,178.5C 107.888,179.277 106.055,180.944 105,183.5C 104.333,182.167 104.333,180.833 105,179.5C 109.805,174.217 113.305,168.217 115.5,161.5C 117.543,160.421 118.876,158.754 119.5,156.5C 124.084,150.912 129.084,145.578 134.5,140.5C 135.333,138.833 136.167,137.167 137,135.5C 143.422,128.58 149.922,121.914 156.5,115.5C 165.175,109.83 173.842,104.164 182.5,98.5C 183.167,98.5 183.833,98.5 184.5,98.5C 187.727,96.4262 191.394,95.0929 195.5,94.5C 196.167,94.8333 196.833,95.1667 197.5,95.5C 196.754,96.7362 196.421,98.0695 196.5,99.5 Z"/></g>
<g><path style="opacity:0.863" fill="#fcfbc4" d="M 60.5,110.5 C 60.9754,113.313 59.9754,115.313 57.5,116.5C 57.9925,114.181 58.9925,112.181 60.5,110.5 Z"/></g>
<g><path style="opacity:1" fill="#c8dd6c" d="M 195.5,99.5 C 192.075,101.089 189.408,103.589 187.5,107C 182.541,110.151 177.541,113.318 172.5,116.5C 173.167,115.167 173.833,113.833 174.5,112.5C 180.42,108.854 186.087,104.687 191.5,100C 192.793,99.51 194.127,99.3433 195.5,99.5 Z"/></g>
<g><path style="opacity:1" fill="#fcfaa3" d="M 62.5,109.5 C 62.3094,113.663 60.6427,116.996 57.5,119.5C 57.5,118.5 57.5,117.5 57.5,116.5C 59.9754,115.313 60.9754,113.313 60.5,110.5C 61.1667,110.167 61.8333,109.833 62.5,109.5 Z"/></g>
<g><path style="opacity:1" fill="#a4ca85" d="M 260.5,116.5 C 260.664,119.187 260.497,121.854 260,124.5C 259.901,126.653 259.067,128.319 257.5,129.5C 258.599,125.07 259.599,120.736 260.5,116.5 Z"/></g>
<g><path style="opacity:0.331" fill="#fdfac6" d="M 57.5,116.5 C 57.5,117.5 57.5,118.5 57.5,119.5C 50.4844,132.369 45.3177,146.035 42,160.5C 41,161.5 40,162.5 39,163.5C 37.113,168.635 35.7797,173.969 35,179.5C 34.3333,180.167 33.6667,180.833 33,181.5C 32.6082,185.528 32.1082,189.528 31.5,193.5C 30.6851,194.429 29.8518,195.429 29,196.5C 28.5014,200.152 28.3347,203.818 28.5,207.5C 27.5041,207.414 26.6708,207.748 26,208.5C 24.1913,215.373 22.6913,222.373 21.5,229.5C 20.3127,231.072 19.3127,232.739 18.5,234.5C 26.3377,193.321 39.3377,153.988 57.5,116.5 Z"/></g>
<g><path style="opacity:0.251" fill="#fdfbba" d="M 306.5,121.5 C 303.605,129.621 299.938,137.287 295.5,144.5C 297.66,137.177 300.494,130.177 304,123.5C 304.708,122.619 305.542,121.953 306.5,121.5 Z"/></g>
<g><path style="opacity:1" fill="#c5db67" d="M 156.5,115.5 C 149.922,121.914 143.422,128.58 137,135.5C 136.167,137.167 135.333,138.833 134.5,140.5C 129.084,145.578 124.084,150.912 119.5,156.5C 119.351,155.448 119.517,154.448 120,153.5C 124.925,146.653 130.092,139.986 135.5,133.5C 141.337,127.869 147.337,122.202 153.5,116.5C 154.325,115.614 155.325,115.281 156.5,115.5 Z"/></g>
<g><path style="opacity:0.039" fill="#fdfac0" d="M 295.5,144.5 C 294.352,148.787 292.685,152.787 290.5,156.5C 290.737,153.353 291.57,150.353 293,147.5C 293.377,146.058 294.21,145.058 295.5,144.5 Z"/></g>
<g><path style="opacity:1" fill="#c3db62" d="M 174.5,112.5 C 173.833,113.833 173.167,115.167 172.5,116.5C 166.128,120.024 160.128,124.191 154.5,129C 152.368,132.986 149.368,135.986 145.5,138C 140.781,143.725 135.614,149.225 130,154.5C 125.104,163.56 118.604,171.226 110.5,177.5C 112.445,173.717 114.611,170.051 117,166.5C 124.315,158.583 131.648,150.583 139,142.5C 149.776,131.222 161.61,121.222 174.5,112.5 Z"/></g>
<g><path style="opacity:0.165" fill="#fdfac1" d="M 290.5,156.5 C 288.084,161.667 285.418,166.667 282.5,171.5C 282.629,169.784 282.962,168.117 283.5,166.5C 285.453,163.859 286.953,160.859 288,157.5C 288.671,156.748 289.504,156.414 290.5,156.5 Z"/></g>
<g><path style="opacity:0.902" fill="#fdfaac" d="M 283.5,166.5 C 282.962,168.117 282.629,169.784 282.5,171.5C 282.672,172.492 282.338,173.158 281.5,173.5C 280.222,173.782 279.222,174.449 278.5,175.5C 280.313,172.58 281.98,169.58 283.5,166.5 Z"/></g>
<g><path style="opacity:0.929" fill="#fdfbc3" d="M 281.5,173.5 C 280.258,177.655 278.258,181.322 275.5,184.5C 275.664,181.183 276.664,178.183 278.5,175.5C 279.222,174.449 280.222,173.782 281.5,173.5 Z"/></g>
<g><path style="opacity:1" fill="#bfd95d" d="M 115.5,161.5 C 113.305,168.217 109.805,174.217 105,179.5C 104.333,180.833 104.333,182.167 105,183.5C 106.055,180.944 107.888,179.277 110.5,178.5C 109.194,181.463 107.527,184.13 105.5,186.5C 104.141,188.824 102.141,190.49 99.5,191.5C 99.1667,190.833 98.8333,190.167 98.5,189.5C 99.1869,187.823 99.8535,186.156 100.5,184.5C 105.301,177.583 109.635,170.249 113.5,162.5C 113.957,161.702 114.624,161.369 115.5,161.5 Z"/></g>
<g><path style="opacity:1" fill="#5f9f62" d="M 90.5,177.5 C 88.9764,184.855 86.6431,191.855 83.5,198.5C 85.0177,191.764 86.851,185.098 89,178.5C 89.3826,177.944 89.8826,177.611 90.5,177.5 Z"/></g>
<g><path style="opacity:1" fill="#6aa667" d="M 75.5,171.5 C 75.0989,179.046 74.0989,186.38 72.5,193.5C 72.076,185.837 73.076,178.504 75.5,171.5 Z"/></g>
<g><path style="opacity:1" fill="#c8dc6a" d="M 100.5,184.5 C 99.8535,186.156 99.1869,187.823 98.5,189.5C 98.8333,190.167 99.1667,190.833 99.5,191.5C 102.141,190.49 104.141,188.824 105.5,186.5C 105.291,187.922 104.791,189.255 104,190.5C 99.4525,194.71 96.1191,199.71 94,205.5C 91.8016,207.226 89.9683,209.226 88.5,211.5C 87.3691,209.926 87.2025,208.259 88,206.5C 91.8493,200.065 95.1826,193.398 98,186.5C 98.7083,185.619 99.5416,184.953 100.5,184.5 Z"/></g>
<g><path style="opacity:1" fill="#fcf9a7" d="M 31.5,193.5 C 30.3359,198.178 29.3359,202.844 28.5,207.5C 28.3347,203.818 28.5014,200.152 29,196.5C 29.8518,195.429 30.6851,194.429 31.5,193.5 Z"/></g>
<g><path style="opacity:1" fill="#b8d88d" d="M 213.5,207.5 C 211.431,210.573 208.764,212.906 205.5,214.5C 207.569,211.427 210.236,209.094 213.5,207.5 Z"/></g>
<g><path style="opacity:1" fill="#fdfac3" d="M 275.5,184.5 C 269.102,197.734 261.269,210.068 252,221.5C 249.151,224.574 246.317,227.574 243.5,230.5C 243.5,229.5 243.5,228.5 243.5,227.5C 249.546,219.959 255.379,212.293 261,204.5C 263.844,196.19 268.678,189.523 275.5,184.5 Z"/></g>
<g><path style="opacity:1" fill="#5e9c60" d="M 78.5,219.5 C 78.9465,222.01 78.2798,224.01 76.5,225.5C 76.2594,223.102 76.9261,221.102 78.5,219.5 Z"/></g>
<g><path style="opacity:1" fill="#68a263" d="M 72.5,230.5 C 73.2679,231.263 73.7679,232.263 74,233.5C 74.2784,232.584 74.7784,231.918 75.5,231.5C 75.6168,233.484 74.9501,235.15 73.5,236.5C 72.5344,234.604 72.2011,232.604 72.5,230.5 Z"/></g>
<g><path style="opacity:1" fill="#fefbb2" d="M 243.5,227.5 C 243.5,228.5 243.5,229.5 243.5,230.5C 239.006,233.65 235.672,237.65 233.5,242.5C 232.448,242.351 231.448,242.517 230.5,243C 228.297,245.372 225.963,247.539 223.5,249.5C 229.804,241.862 236.47,234.528 243.5,227.5 Z"/></g>
<g><path style="opacity:0.569" fill="#fcfacd" d="M 243.5,230.5 C 240.641,234.878 237.308,238.878 233.5,242.5C 235.672,237.65 239.006,233.65 243.5,230.5 Z"/></g>
<g><path style="opacity:1" fill="#fdfab5" d="M 21.5,229.5 C 21.1384,234.103 20.1384,238.436 18.5,242.5C 18.5,239.833 18.5,237.167 18.5,234.5C 19.3127,232.739 20.3127,231.072 21.5,229.5 Z"/></g>
<g><path style="opacity:1" fill="#a9d088" d="M 164.5,238.5 C 159.367,241.658 153.7,243.658 147.5,244.5C 152.941,242.129 158.608,240.129 164.5,238.5 Z"/></g>
<g><path style="opacity:0.692" fill="#fbfad2" d="M 18.5,234.5 C 18.5,237.167 18.5,239.833 18.5,242.5C 17.5318,244.607 17.1984,246.941 17.5,249.5C 16.5987,250.29 15.9321,251.29 15.5,252.5C 15.1667,252.5 14.8333,252.5 14.5,252.5C 15.2152,246.245 16.5485,240.245 18.5,234.5 Z"/></g>
<g><path style="opacity:1" fill="#fdfac3" d="M 233.5,242.5 C 219.636,257.098 203.636,268.765 185.5,277.5C 187.467,275.507 189.467,273.507 191.5,271.5C 202.448,264.548 213.115,257.214 223.5,249.5C 225.963,247.539 228.297,245.372 230.5,243C 231.448,242.517 232.448,242.351 233.5,242.5 Z"/></g>
<g><path style="opacity:1" fill="#fdfaa6" d="M 17.5,249.5 C 17.0662,254.668 16.3996,259.668 15.5,264.5C 15.5,260.5 15.5,256.5 15.5,252.5C 15.9321,251.29 16.5987,250.29 17.5,249.5 Z"/></g>
<g><path style="opacity:0.964" fill="#fdfbc4" d="M 14.5,252.5 C 14.8333,252.5 15.1667,252.5 15.5,252.5C 15.5,256.5 15.5,260.5 15.5,264.5C 14.2845,270.083 12.9512,275.749 11.5,281.5C 11.1667,281.5 10.8333,281.5 10.5,281.5C 10.5,278.833 10.5,276.167 10.5,273.5C 11.065,266.342 12.3984,259.342 14.5,252.5 Z"/></g>
<g><path style="opacity:0.186" fill="#f9fad7" d="M 10.5,273.5 C 10.5,276.167 10.5,278.833 10.5,281.5C 10.7406,283.898 10.0739,285.898 8.5,287.5C 8.91145,282.662 9.57811,277.995 10.5,273.5 Z"/></g>
<g><path style="opacity:0.008" fill="#fdfbcb" d="M 185.5,277.5 C 184.486,278.674 183.153,279.34 181.5,279.5C 182.287,277.896 183.62,277.229 185.5,277.5 Z"/></g>
<g><path style="opacity:0.016" fill="#fdfbc5" d="M 181.5,279.5 C 179.819,281.008 177.819,282.008 175.5,282.5C 176.784,280.386 178.784,279.386 181.5,279.5 Z"/></g>
<g><path style="opacity:1" fill="#fdfbb5" d="M 10.5,281.5 C 10.8333,281.5 11.1667,281.5 11.5,281.5C 11.6796,288.45 10.513,295.116 8,301.5C 7.82474,306.019 7.32474,310.353 6.5,314.5C 6.45654,305.442 7.1232,296.442 8.5,287.5C 10.0739,285.898 10.7406,283.898 10.5,281.5 Z"/></g>
<g><path style="opacity:1" fill="#fcfab0" d="M 172.5,283.5 C 161.699,288.993 150.366,293.326 138.5,296.5C 138.33,295.178 138.663,294.011 139.5,293C 147.008,291.501 154.342,289.501 161.5,287C 163,286.167 164.167,285 165,283.5C 167.354,283.892 169.854,283.892 172.5,283.5 Z"/></g>
<g><path style="opacity:0.667" fill="#fdfab4" d="M 137.5,296.5 C 132.559,298.96 127.225,300.293 121.5,300.5C 122.347,299.034 123.68,298.2 125.5,298C 129.44,296.985 133.44,296.485 137.5,296.5 Z"/></g>
<g><path style="opacity:0.046" fill="#fdfac8" d="M 120.5,300.5 C 115.401,302.076 110.067,303.076 104.5,303.5C 104.918,302.778 105.584,302.278 106.5,302C 111.156,301.335 115.823,300.835 120.5,300.5 Z"/></g>
<g><path style="opacity:0.898" fill="#fcfacc" d="M 8.5,287.5 C 7.1232,296.442 6.45654,305.442 6.5,314.5C 5.77842,314.918 5.27842,315.584 5,316.5C 3.83913,322.126 3.00579,327.793 2.5,333.5C 5.3126,333.975 7.3126,332.975 8.5,330.5C 10.1172,329.962 11.7839,329.629 13.5,329.5C 10.973,331.605 8.63965,333.939 6.5,336.5C 4.5,336.5 2.5,336.5 0.5,336.5C 0.67158,335.508 0.338246,334.842 -0.5,334.5C -0.5,333.167 -0.5,331.833 -0.5,330.5C 3.08769,316.287 6.08769,301.954 8.5,287.5 Z"/></g>
<g><path style="opacity:0.525" fill="#fdfac6" d="M 85.5,303.5 C 91.1667,303.5 96.8333,303.5 102.5,303.5C 94.6931,304.717 86.6931,305.384 78.5,305.5C 80.8333,304.833 83.1667,304.167 85.5,303.5 Z"/></g>
<g><path style="opacity:0.241" fill="#fcfad0" d="M 76.5,305.5 C 69.1832,305.987 61.8499,306.987 54.5,308.5C 55.0577,307.21 56.0577,306.377 57.5,306C 63.8246,305.5 70.1579,305.334 76.5,305.5 Z"/></g>
<g><path style="opacity:1" fill="#fcf9b1" d="M 85.5,303.5 C 83.1667,304.167 80.8333,304.833 78.5,305.5C 77.8333,305.5 77.1667,305.5 76.5,305.5C 70.1579,305.334 63.8246,305.5 57.5,306C 56.0577,306.377 55.0577,307.21 54.5,308.5C 50.5844,311.29 46.251,313.29 41.5,314.5C 40.5,314.5 39.5,314.5 38.5,314.5C 41.7654,312.668 45.0987,310.835 48.5,309C 49.7932,308.51 51.1266,308.343 52.5,308.5C 52.33,307.178 52.6634,306.011 53.5,305C 64.167,304.433 74.8337,303.933 85.5,303.5 Z"/></g>
<g><path style="opacity:0.235" fill="#fcfac1" d="M 38.5,314.5 C 39.5,314.5 40.5,314.5 41.5,314.5C 37.4933,318.174 32.8266,320.841 27.5,322.5C 27.4142,321.504 27.7476,320.671 28.5,320C 32.204,318.619 35.5373,316.786 38.5,314.5 Z"/></g>
<g><path style="opacity:0.012" fill="#fafbce" d="M 27.5,322.5 C 26.4863,323.674 25.153,324.34 23.5,324.5C 24.287,322.896 25.6203,322.229 27.5,322.5 Z"/></g>
<g><path style="opacity:0.149" fill="#fdfbc9" d="M 23.5,324.5 C 21.4208,326.873 18.7541,328.206 15.5,328.5C 16.1667,327.833 16.8333,327.167 17.5,326.5C 19.3146,325.37 21.3146,324.704 23.5,324.5 Z"/></g>
<g><path style="opacity:1" fill="#fcfaa6" d="M 17.5,326.5 C 16.8333,327.167 16.1667,327.833 15.5,328.5C 15.1583,329.338 14.4916,329.672 13.5,329.5C 11.7839,329.629 10.1172,329.962 8.5,330.5C 10.773,327.829 13.773,326.495 17.5,326.5 Z"/></g>
<g><path style="opacity:1" fill="#fcf9a4" d="M 6.5,314.5 C 5.75642,318.644 5.08975,322.811 4.5,327C 4.83333,328.5 5.16667,330 5.5,331.5C 6.41683,330.873 7.41683,330.539 8.5,330.5C 7.3126,332.975 5.3126,333.975 2.5,333.5C 3.00579,327.793 3.83913,322.126 5,316.5C 5.27842,315.584 5.77842,314.918 6.5,314.5 Z"/></g>
</svg>
